<svg xmlns="http://www.w3.org/2000/svg" viewBox="0 0 32 32">
  <defs>
    <linearGradient id="g" x1="0" y1="0" x2="1" y2="0.5">
      <stop offset="0%" stop-color="#3fa89b"/>
      <stop offset="46%" stop-color="#6e5a9e"/>
      <stop offset="100%" stop-color="#b98a4e"/>
    </linearGradient>
  </defs>
  <rect width="32" height="32" rx="7" fill="#0c1917"/>
  <!-- two wings and a body: the mark at its smallest legible size -->
  <g stroke="url(#g)" fill="none" stroke-linecap="round">
    <path d="M15.5 15.5 C 11 9.5, 6.5 7.5, 4 8.5 C 2.5 9.2, 4 12.5, 8 14.2 C 10.6 15.3, 13.4 15.6, 15.5 15.5 Z" stroke-width="1.2"/>
    <path d="M16.5 15.5 C 21 9.5, 25.5 7.5, 28 8.5 C 29.5 9.2, 28 12.5, 24 14.2 C 21.4 15.3, 18.6 15.6, 16.5 15.5 Z" stroke-width="1.2"/>
    <path d="M15.6 16.6 C 12.4 20.4, 9.2 22.2, 7.4 21.6 C 6.3 21.2, 7.4 18.9, 10.2 17.6 C 12 16.8, 14.1 16.6, 15.6 16.6 Z" stroke-width="1"/>
    <path d="M16.4 16.6 C 19.6 20.4, 22.8 22.2, 24.6 21.6 C 25.7 21.2, 24.6 18.9, 21.8 17.6 C 20 16.8, 17.9 16.6, 16.4 16.6 Z" stroke-width="1"/>
    <path d="M16 12.5 L16 25.5" stroke-width="1.6"/>
  </g>
  <circle cx="16" cy="11.6" r="1.5" fill="url(#g)"/>
</svg>
